# xmcd
#
# Track frame offsets:
#	150
#	17962
#	37612
#	62887
#	79762
#	98587
#	126787
#	144487
#	166162
#
# Disc length: 2467 seconds
#
# Revision: 3
# Processed by: cddbd v1.5.2PL0 Copyright (c) Steve Scherf et al.
# Submitted via: audiograbber 1.83.01
#
DISCID=6809a109
DTITLE=Himlaväsen - Hip Bop
DYEAR=1989
DGENRE=
TTITLE0=Hip bop
TTITLE1=Slow ride
TTITLE2=Sommerfugl (Butterfly)
TTITLE3=Chicken wire
TTITLE4=Miles away
TTITLE5=Roots
TTITLE6=Walkin' on
TTITLE7=Travels
TTITLE8=From me to you
EXTD=
EXTT0=
EXTT1=
EXTT2=
EXTT3=
EXTT4=
EXTT5=
EXTT6=
EXTT7=
EXTT8=
PLAYORDER=
